<svg xmlns="http://www.w3.org/2000/svg" xmlns:xlink="http://www.w3.org/1999/xlink" width="300" height="171.623" viewBox="0 0 300 150"><defs><style>.a,.v,.x{fill:none;}.b{clip-path:url(#a);}.c{fill:#fff;}.d{fill:url(#b);}.e{clip-path:url(#c);}.f{opacity:0.46;fill:url(#d);}.g{fill:url(#e);}.h{clip-path:url(#f);}.i{fill:#999;}.j{fill:#ccc;}.k{fill:url(#g);}.l{fill:#2e78af;}.m{fill:#9bbfd9;}.m,.o,.t{opacity:0.5;}.n{fill:#2689c6;}.o{fill:#afcbe0;}.p,.t{fill:#29abe2;}.q{fill:#ffd2c3;}.r{fill:#e6e6e6;}.s{fill:#ffb595;}.u{fill:#48c4ef;}.v{stroke:#69b2ea;}.v,.x{stroke-miterlimit:10;stroke-width:2px;}.w{fill:#69b2ea;}.x{stroke:#e5e5e5;}</style><clipPath id="a"><rect class="a" width="300" height="171.623"/></clipPath><linearGradient id="b" y1="0.5" x2="1" y2="0.5" gradientUnits="objectBoundingBox"><stop offset="0" stop-color="#7dcaff"/><stop offset="1" stop-color="#1a5194"/></linearGradient><clipPath id="c"><circle class="a" cx="68.438" cy="68.438" r="68.438" transform="translate(411.602 187.99)"/></clipPath><linearGradient id="d" x1="0.258" y1="0.5" x2="0.817" y2="0.531" gradientUnits="objectBoundingBox"><stop offset="0" stop-color="#a1dcf3"/><stop offset="1" stop-color="#2d71b7"/></linearGradient><linearGradient id="e" x1="0.256" y1="0.398" x2="0.815" y2="0.515" xlink:href="#d"/><clipPath id="f"><rect class="a" width="165.936" height="159.855" transform="translate(400.558 153.242)"/></clipPath><linearGradient id="g" x1="0.318" y1="0.312" x2="0.559" y2="0.85" gradientUnits="objectBoundingBox"><stop offset="0.459" stop-color="#fff"/><stop offset="0.999" stop-color="#dedede"/></linearGradient></defs><g class="b" transform="translate(0 0)"><g transform="translate(-334.306 -153.242)"><path class="c" d="M634.306,314.232V260.287h-.118a31.371,31.371,0,0,0-39.748-27.572,31.386,31.386,0,1,0-56.391,27.572h-119.2a31.376,31.376,0,0,0-53.1-28.741h-.061a31.38,31.38,0,0,0-31.264,28.742h-.119v53.945Z"/><path class="d" d="M443.236,313.348h73.607a68.438,68.438,0,1,0-73.607,0Z"/><g class="e"><path class="f" d="M580.154,313.348a26.178,26.178,0,0,0,2.1-10.178c0-28.134-47.116-50.941-105.237-50.941S371.783,275.036,371.783,303.17a26.178,26.178,0,0,0,2.1,10.178Z"/><path class="g" d="M416.469,345.624c17.124,5.842,38.009,9.275,60.551,9.275s43.427-3.433,60.551-9.275Z"/></g><g class="h"><rect class="c" width="30.406" height="17.387" transform="translate(437.879 329.683) rotate(-120.725)"/><path class="i" d="M445.183,322.5a1.63,1.63,0,1,0,2.568.3A1.864,1.864,0,0,0,445.183,322.5Z"/><path d="M447.361,326.166l-39.927,23.816V310.217l22.473-13.409.982,1.658,1.834,3.085,1.128,1.888,1.6,2.7,5.557,9.348,3.561,5.987.606,1.021,1.251,2.1.361.606Z"/><path class="j" d="M432.977,237.715l18.87,31.868-16.033,9.494a5.111,5.111,0,0,1-6.059-.617,5.324,5.324,0,0,1-.945-1.156L415.128,254.2a5.319,5.319,0,0,1-.559-1.384c-.018-.065-.027-.128-.042-.188a5.13,5.13,0,0,1,.889-4.024,5.05,5.05,0,0,1,1.528-1.392Z"/><path class="c" d="M432.977,237.715l1.747,2.951-20.2,11.959a5.13,5.13,0,0,1,.889-4.024,5.05,5.05,0,0,1,1.528-1.392Z"/><rect class="j" width="15.788" height="37.036" transform="matrix(0.86, -0.509, 0.509, 0.86, 419.392, 245.759)"/><path class="k" d="M512.129,164.037l42.379,71.572a39.2,39.2,0,0,1-4.431.429c-3.505.2-7.866.268-14.729,1.189-10.282,1.39-35.369,8.96-48.32,13-4.875,1.522-8.031,2.54-8.031,2.54L466.2,259.751l-17.705-29.9,12.275-7.858s2.41-2.278,6.088-5.821c9.77-9.413,28.473-27.765,34.633-36.117,4.107-5.574,6.267-9.363,8.125-12.343A39.13,39.13,0,0,1,512.129,164.037Z"/><path class="c" d="M460.175,227.317s2.673-2.526,6.753-6.456c10.836-10.441,31.582-30.8,38.414-40.061,4.4-5.978,6.79-10.1,8.8-13.356l-2.018-3.407a39.13,39.13,0,0,0-2.509,3.673c-1.858,2.98-4.018,6.769-8.125,12.343-6.16,8.352-24.863,26.7-34.633,36.117-3.678,3.543-6.088,5.821-6.088,5.821L448.5,229.849l2.122,3.584Z"/><path class="j" d="M466.862,216.17l20.166,34.057c-4.875,1.522-8.031,2.54-8.031,2.54L466.2,259.751l-17.705-29.9,12.275-7.858S463.184,219.713,466.862,216.17Z"/><rect class="l" width="50.256" height="40.217" rx="2.036" transform="matrix(0.86, -0.509, 0.509, 0.86, 420.408, 243.306)"/><path class="m" d="M456.454,243.747l-7.745,4.586a2.59,2.59,0,0,1-3.538-.906h0a2.592,2.592,0,0,1,.906-3.538l7.745-4.585a2.59,2.59,0,0,1,3.538.906h0A2.589,2.589,0,0,1,456.454,243.747Z"/><path class="n" d="M464.693,219.457l1.519,2.565-43.245,25.6-1.518-2.564a2.041,2.041,0,0,1,.712-2.795l39.739-23.53A2.042,2.042,0,0,1,464.693,219.457Z"/><path class="o" d="M435.5,234.374l20.49,34.605-13.339,7.895a2.041,2.041,0,0,1-2.79-.715l-18.412-31.1a2.041,2.041,0,0,1,.712-2.795Z"/><path class="p" d="M425.69,240.178l20.49,34.606-3.529,2.09a2.041,2.041,0,0,1-2.79-.715l-18.412-31.1a2.041,2.041,0,0,1,.712-2.795Z"/><path class="q" d="M511.76,293.539c-.008,0-.008.007-.015.015-.054.054-.215.207-.476.453-.069.061-.146.138-.231.215-.023.023-.061.054-.092.084-.146.139-.314.292-.506.461-.254.23-.538.483-.86.752-.269.23-.56.476-.867.737-.929.775-2.034,1.65-3.278,2.548-.967.706-2.01,1.42-3.116,2.1-.368.23-.737.453-1.12.676-.852.5-1.735.974-2.633,1.412-.86.422-1.727.806-2.61,1.136a18.963,18.963,0,0,1-6.616,1.351c-.215,0-.429-.008-.644-.016-8.412-.407-11.651-1.688-11.651-1.688l-9.057,5.3-6.424,3.753-8.589,5.027-28.069,16.41-.483-.814V320.226l20.217-16.4,7.8-6.332,4.851-3.938.99-.806,5.519-4.474,5.4-9.364,3.094-5.358.9-1.573,1.19-2.065.645-1.12.69-1.2.046-.084.484-.837.814-.238.307-.092.9-.261h.007l.346-.1a3.86,3.86,0,0,1,.33-.3l.03-.023a2.693,2.693,0,0,1,.231-.207c.353-.3.706-.591,1.059-.883.269-.215.537-.429.806-.637a.346.346,0,0,0,.061-.046c.86-.66,1.712-1.282,2.533-1.85a63.34,63.34,0,0,1,7.345-4.39q.322-.1.622-.184v-.008a11.4,11.4,0,0,1,1.174-.268c.123-.023.246-.046.369-.062a9.469,9.469,0,0,1,1.343-.1c.2,0,.391.007.568.023.092.007.184.015.276.03a.166.166,0,0,1,.085.008c.1.008.191.023.284.038a5.212,5.212,0,0,1,.537.115.046.046,0,0,1,.031.008c.13.031.253.069.376.108a1.2,1.2,0,0,1,.153.053,3.339,3.339,0,0,1,.323.131,3.773,3.773,0,0,1,.437.215.03.03,0,0,0,.023.007,3.959,3.959,0,0,1,1.328,1.121l-.115,1.144-.246,2.164.2.867.99,4.214v.008l.476,2.041.03.123,1.3,5.572-2,1.251h-.007l1.68,2.119,1.251,1.589h.008l5.081,6.431h.008l.99,1.259,2,2.525Z"/><path class="r" d="M486.333,255.066l6.66,11.641-.314,5.142,11.738,20.518,3.357,3.156c2.1,1.974,2.09,5.425-.007,6.718l-7.1,4.378c-1.67,1.03-3.975.208-5.143-1.834L472.1,263.842Z"/><path class="j" d="M492.679,271.849l11.738,20.518,3.357,3.156c2.1,1.974,2.09,5.425-.007,6.718l-2.415,1.49-25.541-44.644,6.522-4.021,6.66,11.641Z"/><path class="s" d="M475.8,267.487l-2.184,1.583.805.882-11.768,21.059c1.971,5.223,4.781,9.283,8.661,8.345,9.716-2.349,11.747-9.387,11.747-9.387,6.328,10.223,12.4,12.555,15.5,13.026a56.9,56.9,0,0,0,13.2-9.457l-1.175-3.343-11.013-13.924,2.011-1.254-1.3-5.569-8.757,8.071-7.223-3.634-5.532-8.552-1.4,1.014-1.117.328Z"/><path class="s" d="M477.064,266.435l2.609,3.092,19.158-9.5.121-1.141s-2.086-3.165-7.931-1.231a63.278,63.278,0,0,0-11.8,7.8c-.2.171-.4.347-.593.526Z"/><path class="q" d="M479.895,267.365c1.29-.9,3.009-2.035,4.821-3.192,3.8-2.434,8-4.984,9.544-5.75,2.9-1.453,5.364-.635,7.077,2.153a6.2,6.2,0,0,1,.517,5.448l-11,6.654-7.048,4.263a4.043,4.043,0,0,0-.4.528,6.253,6.253,0,0,1-4.606-.451c-2.97-1.836-2.036-6.912-1.065-7.974A17.89,17.89,0,0,1,479.895,267.365Z"/><path class="q" d="M490.854,272.678l11-6.654a10.04,10.04,0,0,1,1.957,1.127c4.522,3.337,2.328,8.482,2.328,8.482L489.894,284.8a7.58,7.58,0,0,0-.941.89c-1.774.662-4.177.935-5.6-1.5a6.477,6.477,0,0,1-.964-3.931,5.944,5.944,0,0,1,1.011-2.789,4.043,4.043,0,0,1,.4-.528Z"/><path class="q" d="M493.4,296.5a5.635,5.635,0,0,0,1.3,2.837c2.7,3.51,4.894,1.823,17.07-5.8a5.222,5.222,0,0,0-.552-7.4,10.179,10.179,0,0,0-1.3-1.07l-15.592,9.091A2.624,2.624,0,0,0,493.4,296.5Z"/><path class="q" d="M489.894,284.8a7.306,7.306,0,0,0-2.274,3.063,3.776,3.776,0,0,0,.247,3.071c1.583,2.993,3.633,4.105,6.447,3.225l15.592-9.091a6.736,6.736,0,0,0-1.769-8.073,10.587,10.587,0,0,0-2-1.362Z"/><path class="s" d="M483.806,276.941a5.931,5.931,0,0,0-1.416,3.317l21.421-13.107a10.04,10.04,0,0,0-1.957-1.127Z"/><path class="s" d="M489.894,284.8a7.306,7.306,0,0,0-2.274,3.063l20.517-10.868a10.587,10.587,0,0,0-2-1.362Z"/><path class="s" d="M493.4,296.5l17.814-10.36a10.179,10.179,0,0,0-1.3-1.07l-15.592,9.091A2.624,2.624,0,0,0,493.4,296.5Z"/><path class="s" d="M484.716,264.173a3.615,3.615,0,0,1,.4.47c1.18,1.634,2.741,4.288,5.741,8.035.108.14.224.281.34.423,1.326,1.633,2.922,3.471,4.875,5.51a1.422,1.422,0,0,1,.224,1.671,10.227,10.227,0,0,1-1.03,1.489l-5.369,3.029a7.58,7.58,0,0,0-.941.89c-1.775.662-4.177.935-5.6-1.5a6.477,6.477,0,0,1-.964-3.931,5.948,5.948,0,0,1,1.011-2.789,6.254,6.254,0,0,1-4.606-.451,23.277,23.277,0,0,1,1.1-9.653,29.13,29.13,0,0,1,1.31-3.48A2.574,2.574,0,0,1,484.716,264.173Z"/><path class="q" d="M494.521,280.36a1.531,1.531,0,0,1-.384.7c-1.8,1.827-5.917,4.874-11.021,1.389-.207-.138-.415-.292-.63-.453v-.007a15.28,15.28,0,0,1-1.941-1.8s3.7,8.442-2.572,14.659l-7.729,4.644-5.856,3.515L458,306.84l-8.527,5.119L424.423,327V307.746l16.717-9.809,8.573-5.035,6.424-3.769,7.361-4.321,4.659-14.038a5.169,5.169,0,0,1,.575-1.19v-.007a5.39,5.39,0,0,1,1.758-1.7l2.963-1.75,1.189-.706a8.883,8.883,0,0,1,3.37-1.151l3.131-.384.062-.007a2.966,2.966,0,0,1,.782.007,3.094,3.094,0,0,1,1.8.883,3.18,3.18,0,0,1,.607.836c.184.377.4.791.644,1.252a49.562,49.562,0,0,0,4.352,6.7c.4.537.837,1.075,1.29,1.627.475.576.967,1.152,1.5,1.735.261.284.53.575.821.867,0,.008,0,.008.008.015.353.384.729.776,1.121,1.159A1.454,1.454,0,0,1,494.521,280.36Z"/><path class="p" d="M489.278,243.041l4.21,7.11a2.652,2.652,0,0,1-.932,3.638l-28.9,17.019a2.653,2.653,0,0,1-3.639-.932l-4.21-7.11a2.59,2.59,0,0,1-.319-.84,2.649,2.649,0,0,1,1.252-2.8l28.9-17.018a2.648,2.648,0,0,1,3.056.248A2.583,2.583,0,0,1,489.278,243.041Z"/><path class="t" d="M492.625,248.693l.863,1.458a2.652,2.652,0,0,1-.932,3.638l-28.9,17.019a2.653,2.653,0,0,1-3.639-.932l-.863-1.458Z"/><path class="u" d="M488.7,242.357l-33.211,19.569a2.649,2.649,0,0,1,1.252-2.8l28.9-17.018A2.648,2.648,0,0,1,488.7,242.357Z"/><path class="u" d="M425.69,240.178l2.559,4.322-5.282,3.127-1.518-2.564a2.041,2.041,0,0,1,.712-2.795Z"/><path class="p" d="M455.306,243.569l-7.745,4.586a2.589,2.589,0,0,1-3.537-.906h0a2.59,2.59,0,0,1,.906-3.538l7.745-4.585a2.589,2.589,0,0,1,3.537.906h0A2.589,2.589,0,0,1,455.306,243.569Z"/><path class="j" d="M512.129,164.037l42.379,71.572a39.2,39.2,0,0,1-4.431.429L509.62,167.71A39.13,39.13,0,0,1,512.129,164.037Z"/><path class="p" d="M515.549,161.7,558.2,233.728a2.611,2.611,0,0,1-.791,3.493,1.371,1.371,0,0,1-.124.08l-.082.049a2.617,2.617,0,0,1-3.573-.916l-42.647-72.025a2.617,2.617,0,0,1,.916-3.573l.081-.049a1.245,1.245,0,0,1,.13-.07A2.614,2.614,0,0,1,515.549,161.7Z"/><path class="t" d="M515.549,161.7,558.2,233.728a2.611,2.611,0,0,1-.791,3.493l-45.3-76.5A2.614,2.614,0,0,1,515.549,161.7Z"/></g><path class="c" d="M526.906,269.567a.616.616,0,0,1-.615-.615v-3.619a.615.615,0,0,1,1.231,0v3.619A.616.616,0,0,1,526.906,269.567Z"/><path class="c" d="M526.906,277.847a.615.615,0,0,1-.615-.615v-3.618a.615.615,0,1,1,1.231,0v3.618A.615.615,0,0,1,526.906,277.847Z"/><path class="c" d="M532.856,271.9h-3.619a.616.616,0,0,1,0-1.231h3.619a.616.616,0,0,1,0,1.231Z"/><path class="c" d="M524.575,271.9h-3.618a.616.616,0,1,1,0-1.231h3.618a.616.616,0,1,1,0,1.231Z"/><path class="c" d="M411.575,209.93a.781.781,0,0,1-.781-.781v-4.592a.781.781,0,1,1,1.562,0v4.592A.781.781,0,0,1,411.575,209.93Z"/><path class="c" d="M411.575,220.439a.781.781,0,0,1-.781-.781v-4.592a.781.781,0,1,1,1.562,0v4.592A.781.781,0,0,1,411.575,220.439Z"/><path class="c" d="M419.125,212.889h-4.592a.781.781,0,0,1,0-1.562h4.592a.781.781,0,0,1,0,1.562Z"/><path class="c" d="M408.616,212.889h-4.592a.781.781,0,0,1,0-1.562h4.592a.781.781,0,0,1,0,1.562Z"/><path class="c" d="M555.51,198.227a.836.836,0,0,1-.836-.836v-4.914a.836.836,0,0,1,1.672,0v4.914A.836.836,0,0,1,555.51,198.227Z"/><path class="c" d="M555.51,209.473a.836.836,0,0,1-.836-.836v-4.914a.836.836,0,1,1,1.672,0v4.914A.836.836,0,0,1,555.51,209.473Z"/><path class="c" d="M563.59,201.393h-4.915a.836.836,0,0,1,0-1.672h4.915a.836.836,0,0,1,0,1.672Z"/><path class="c" d="M552.344,201.393h-4.915a.836.836,0,0,1,0-1.672h4.915a.836.836,0,0,1,0,1.672Z"/><circle class="v" cx="3.909" cy="3.909" r="3.909" transform="translate(420.54 191.034)"/><circle class="w" cx="2.207" cy="2.207" r="2.207" transform="translate(558.47 267.814)"/><circle class="x" cx="5.83" cy="5.83" r="5.83" transform="translate(565.942 244.481)"/><path class="c" d="M454.059,300.715a29.354,29.354,0,0,0-4.633.369,31.587,31.587,0,1,0-61.789,13.148H478.7A29.2,29.2,0,0,0,454.059,300.715Z"/><path class="c" d="M546.021,279.156A36.1,36.1,0,0,0,511.793,303.8a32.113,32.113,0,0,0-19.742,10.437h90.042A36.09,36.09,0,0,0,546.021,279.156Z"/></g></g></svg>